<svg xmlns="http://www.w3.org/2000/svg" xmlns:v="https://svgstorm.com"
viewBox = "0 0 800 541"
width="800"
height="541">
<g fill="None" fill-opacity="0.0" stroke="#000000" stroke-opacity="0.00" stroke-width="0.3"><path d="
M 0.00 541.00 
L 800.00 541.00
L 800.00 0.00
L 0.00 0.00
L 0.00 541.00
M 793.00 280.00 
C 790.80 280.09 791.06 285.92 790.40 292.75 C 789.73 299.59 789.14 299.22 787.74 307.75 C 786.33 316.29 782.65 326.59 780.65 333.70 C 778.65 340.81 777.62 339.41 775.65 345.70 C 773.68 351.98 771.41 353.39 769.20 358.25 C 766.99 363.11 764.48 365.43 762.20 370.25 C 759.92 375.07 755.33 377.74 753.22 383.22 C 751.12 388.71 744.11 390.71 741.25 396.25 C 738.40 401.80 734.27 405.47 729.25 411.25 C 724.22 417.02 720.01 418.37 715.30 423.30 C 710.60 428.23 707.39 429.55 703.75 433.19 C 700.11 436.84 694.63 439.21 690.75 443.19 C 686.87 447.17 682.51 448.34 678.25 451.39 C 673.98 454.45 671.30 456.12 666.25 459.39 C 661.20 462.66 660.79 462.07 654.25 466.39 C 647.70 470.72 638.43 475.79 631.25 478.39 C 624.07 481.00 625.93 482.51 620.08 484.13 C 614.23 485.76 614.03 487.70 607.25 489.59 C 600.47 491.48 603.15 492.66 595.23 494.58 C 587.31 496.49 578.64 501.06 570.61 503.76 C 562.57 506.45 550.01 508.27 543.08 511.13 C 536.15 514.00 537.42 512.38 528.30 514.64 C 519.18 516.91 508.38 518.49 498.78 520.22 C 489.17 521.94 479.16 523.58 469.25 524.60 C 459.34 525.63 445.44 527.35 434.31 527.35 C 423.17 527.36 423.12 528.34 412.98 528.98 C 402.83 529.61 393.74 528.23 385.32 528.34 C 376.90 528.45 369.69 528.29 362.78 527.22 C 355.86 526.14 351.80 526.72 345.75 526.20 C 339.70 525.68 334.72 525.06 329.25 524.40 C 323.77 523.73 319.67 522.75 314.25 522.40 C 308.83 522.04 304.41 519.98 298.00 521.00
C 297.75 518.62 291.93 518.89 285.75 517.20 C 279.57 515.51 278.35 516.28 269.75 514.20 C 261.15 512.12 249.05 509.06 240.75 506.20 C 232.45 503.34 232.97 504.12 226.70 501.29 C 220.43 498.45 219.54 501.25 212.77 497.79 C 206.00 494.33 208.02 496.63 199.75 492.81 C 191.47 488.99 180.61 484.14 173.25 481.61 C 165.88 479.07 167.08 477.10 161.08 474.87 C 155.08 472.64 154.44 471.59 148.75 468.81 C 143.06 466.04 142.69 464.50 136.23 461.42 C 129.77 458.35 131.31 457.48 123.08 452.91 C 114.86 448.35 103.98 440.23 96.23 433.43 C 88.48 426.62 88.66 428.14 81.75 421.81 C 74.84 415.47 73.38 415.52 66.25 406.75 C 59.11 397.98 50.09 386.89 44.81 378.75 C 39.53 370.60 40.60 372.95 35.74 365.25 C 30.87 357.54 25.90 348.78 22.36 340.30 C 18.83 331.81 15.40 321.96 12.41 310.25 C 9.41 298.55 9.34 292.34 7.35 278.31 C 5.37 264.27 9.70 248.78 10.80 238.75 C 11.90 228.72 14.76 219.83 18.13 210.08 C 21.50 200.34 25.18 192.33 29.19 183.75 C 33.21 175.18 32.73 179.58 37.24 171.23 C 41.74 162.88 50.32 151.14 56.92 143.87 C 63.52 136.60 63.60 134.68 70.25 128.25 C 76.89 121.82 79.96 119.43 84.19 114.75 C 88.42 110.08 93.34 108.68 98.25 104.20 C 103.16 99.72 105.57 97.66 111.75 93.74 C 117.94 89.82 116.98 88.94 124.77 84.42 C 132.56 79.90 142.75 72.61 150.25 69.81 C 157.76 67.01 156.48 64.49 162.77 62.42 C 169.06 60.36 169.05 59.06 175.77 55.77 C 182.48 52.47 181.89 54.93 189.75 50.61 C 197.62 46.29 206.66 43.90 215.24 40.79 C 223.81 37.68 236.11 32.71 244.75 31.60 C 253.39 30.50 251.76 27.44 258.75 27.40 C 265.74 27.35 266.30 23.53 272.13 23.08 C 277.96 22.63 281.80 21.50 287.30 20.29 C 292.79 19.08 297.02 18.90 301.90 17.88 C 306.78 16.87 312.39 16.49 317.75 15.40 C 323.12 14.30 330.17 14.67 335.75 13.60 C 341.34 12.53 348.14 12.87 354.25 11.81 C 360.36 10.74 366.72 10.56 374.02 10.98 C 381.33 11.39 391.73 10.06 400.00 10.00 C 408.27 9.94 417.88 11.85 425.23 10.79 C 432.58 9.72 439.00 11.79 445.25 11.80 C 451.49 11.81 457.74 12.96 463.75 13.60 C 469.76 14.25 475.92 14.65 481.25 15.80 C 486.58 16.95 491.20 15.84 496.25 17.20 C 501.30 18.56 508.46 19.73 513.70 20.35 C 518.94 20.97 522.70 23.49 528.30 24.71 C 533.91 25.94 538.47 25.68 543.70 27.35 C 548.93 29.02 552.34 30.35 559.08 32.92 C 565.82 35.49 566.62 32.87 574.70 36.35 C 582.77 39.83 592.48 43.26 600.77 46.57 C 609.05 49.88 605.95 50.04 614.30 52.71 C 622.66 55.38 633.12 60.55 640.77 64.58 C 648.42 68.61 646.27 68.54 653.30 71.71 C 660.33 74.88 658.02 75.80 666.25 79.75 C 674.49 83.70 684.16 90.24 692.30 96.71 C 700.44 103.19 712.30 111.40 719.25 117.80 C 726.20 124.20 727.61 125.17 734.25 132.75 C 740.88 140.34 750.08 150.60 755.71 159.30 C 761.35 168.00 767.19 176.54 771.13 184.92 C 775.07 193.30 779.61 202.33 782.58 210.77 C 785.54 219.21 788.37 230.76 789.20 240.25 C 790.03 249.73 791.82 247.74 791.60 255.75 C 791.39 263.77 792.25 269.74 793.00 280.00 Z"/>
</g>
<g fill="None" fill-opacity="0.0" stroke="#000000" stroke-opacity="0.80" stroke-width="0.3"><path d="
M 793.00 280.00 
C 792.25 269.74 791.39 263.77 791.60 255.75 C 791.82 247.74 790.03 249.73 789.20 240.25 C 788.37 230.76 785.54 219.21 782.58 210.77 C 779.61 202.33 775.07 193.30 771.13 184.92 C 767.19 176.54 761.35 168.00 755.71 159.30 C 750.08 150.60 740.88 140.34 734.25 132.75 C 727.61 125.17 726.20 124.20 719.25 117.80 C 712.30 111.40 700.44 103.19 692.30 96.71 C 684.16 90.24 674.49 83.70 666.25 79.75 C 658.02 75.80 660.33 74.88 653.30 71.71 C 646.27 68.54 648.42 68.61 640.77 64.58 C 633.12 60.55 622.66 55.38 614.30 52.71 C 605.95 50.04 609.05 49.88 600.77 46.57 C 592.48 43.26 582.77 39.83 574.70 36.35 C 566.62 32.87 565.82 35.49 559.08 32.92 C 552.34 30.35 548.93 29.02 543.70 27.35 C 538.47 25.68 533.91 25.94 528.30 24.71 C 522.70 23.49 518.94 20.97 513.70 20.35 C 508.46 19.73 501.30 18.56 496.25 17.20 C 491.20 15.84 486.58 16.95 481.25 15.80 C 475.92 14.65 469.76 14.25 463.75 13.60 C 457.74 12.96 451.49 11.81 445.25 11.80 C 439.00 11.79 432.58 9.72 425.23 10.79 C 417.88 11.85 408.27 9.94 400.00 10.00 C 391.73 10.06 381.33 11.39 374.02 10.98 C 366.72 10.56 360.36 10.74 354.25 11.81 C 348.14 12.87 341.34 12.53 335.75 13.60 C 330.17 14.67 323.12 14.30 317.75 15.40 C 312.39 16.49 306.78 16.87 301.90 17.88 C 297.02 18.90 292.79 19.08 287.30 20.29 C 281.80 21.50 277.96 22.63 272.13 23.08 C 266.30 23.53 265.74 27.35 258.75 27.40 C 251.76 27.44 253.39 30.50 244.75 31.60 C 236.11 32.71 223.81 37.68 215.24 40.79 C 206.66 43.90 197.62 46.29 189.75 50.61 C 181.89 54.93 182.48 52.47 175.77 55.77 C 169.05 59.06 169.06 60.36 162.77 62.42 C 156.48 64.49 157.76 67.01 150.25 69.81 C 142.75 72.61 132.56 79.90 124.77 84.42 C 116.98 88.94 117.94 89.82 111.75 93.74 C 105.57 97.66 103.16 99.72 98.25 104.20 C 93.34 108.68 88.42 110.08 84.19 114.75 C 79.96 119.43 76.89 121.82 70.25 128.25 C 63.60 134.68 63.52 136.60 56.92 143.87 C 50.32 151.14 41.74 162.88 37.24 171.23 C 32.73 179.58 33.21 175.18 29.19 183.75 C 25.18 192.33 21.50 200.34 18.13 210.08 C 14.76 219.83 11.90 228.72 10.80 238.75 C 9.70 248.78 5.37 264.27 7.35 278.31 C 9.34 292.34 9.41 298.55 12.41 310.25 C 15.40 321.96 18.83 331.81 22.36 340.30 C 25.90 348.78 30.87 357.54 35.74 365.25 C 40.60 372.95 39.53 370.60 44.81 378.75 C 50.09 386.89 59.11 397.98 66.25 406.75 C 73.38 415.52 74.84 415.47 81.75 421.81 C 88.66 428.14 88.48 426.62 96.23 433.43 C 103.98 440.23 114.86 448.35 123.08 452.91 C 131.31 457.48 129.77 458.35 136.23 461.42 C 142.69 464.50 143.06 466.04 148.75 468.81 C 154.44 471.59 155.08 472.64 161.08 474.87 C 167.08 477.10 165.88 479.07 173.25 481.61 C 180.61 484.14 191.47 488.99 199.75 492.81 C 208.02 496.63 206.00 494.33 212.77 497.79 C 219.54 501.25 220.43 498.45 226.70 501.29 C 232.97 504.12 232.45 503.34 240.75 506.20 C 249.05 509.06 261.15 512.12 269.75 514.20 C 278.35 516.28 279.57 515.51 285.75 517.20 C 291.93 518.89 297.75 518.62 298.00 521.00
C 304.41 519.98 308.83 522.04 314.25 522.40 C 319.67 522.75 323.77 523.73 329.25 524.40 C 334.72 525.06 339.70 525.68 345.75 526.20 C 351.80 526.72 355.86 526.14 362.78 527.22 C 369.69 528.29 376.90 528.45 385.32 528.34 C 393.74 528.23 402.83 529.61 412.98 528.98 C 423.12 528.34 423.17 527.36 434.31 527.35 C 445.44 527.35 459.34 525.63 469.25 524.60 C 479.16 523.58 489.17 521.94 498.78 520.22 C 508.38 518.49 519.18 516.91 528.30 514.64 C 537.42 512.38 536.15 514.00 543.08 511.13 C 550.01 508.27 562.57 506.45 570.61 503.76 C 578.64 501.06 587.31 496.49 595.23 494.58 C 603.15 492.66 600.47 491.48 607.25 489.59 C 614.03 487.70 614.23 485.76 620.08 484.13 C 625.93 482.51 624.07 481.00 631.25 478.39 C 638.43 475.79 647.70 470.72 654.25 466.39 C 660.79 462.07 661.20 462.66 666.25 459.39 C 671.30 456.12 673.98 454.45 678.25 451.39 C 682.51 448.34 686.87 447.17 690.75 443.19 C 694.63 439.21 700.11 436.84 703.75 433.19 C 707.39 429.55 710.60 428.23 715.30 423.30 C 720.01 418.37 724.22 417.02 729.25 411.25 C 734.27 405.47 738.40 401.80 741.25 396.25 C 744.11 390.71 751.12 388.71 753.22 383.22 C 755.33 377.74 759.92 375.07 762.20 370.25 C 764.48 365.43 766.99 363.11 769.20 358.25 C 771.41 353.39 773.68 351.98 775.65 345.70 C 777.62 339.41 778.65 340.81 780.65 333.70 C 782.65 326.59 786.33 316.29 787.74 307.75 C 789.14 299.22 789.73 299.59 790.40 292.75 C 791.06 285.92 790.80 280.09 793.00 280.00
M 789.00 260.00 
C 789.92 265.84 789.87 271.57 789.00 277.00
C 783.11 313.84 779.04 337.70 762.20 364.25 C 745.36 390.79 714.27 424.39 686.70 442.71 C 659.13 461.04 637.59 474.16 611.70 484.71 C 585.81 495.26 558.24 504.76 528.75 511.76 C 499.27 518.75 461.89 523.56 424.00 524.00
C 426.38 526.57 417.02 525.29 411.99 525.99 C 406.96 526.70 397.53 526.30 392.00 526.00 C 386.47 525.70 380.10 525.68 374.00 526.00
C 380.11 521.32 367.24 526.09 360.32 524.66 C 353.41 523.23 352.32 524.03 341.98 523.02 C 331.63 522.02 321.81 519.74 312.25 518.74 C 302.69 517.73 291.81 515.14 284.25 513.74 C 276.68 512.33 266.44 510.05 256.75 507.24 C 247.07 504.44 238.65 503.02 230.81 499.74 C 222.98 496.46 212.39 494.66 205.25 491.60 C 198.12 488.54 189.15 484.63 182.23 481.42 C 175.31 478.22 167.88 475.80 160.25 471.61 C 152.61 467.41 145.69 463.33 137.25 458.74 C 128.80 454.14 123.19 448.94 114.08 442.91 C 104.98 436.88 98.60 431.87 88.75 423.81 C 78.89 415.75 72.40 406.63 62.75 396.25 C 53.10 385.87 41.26 369.74 35.87 360.08 C 30.48 350.42 27.89 345.10 24.42 337.23 C 20.96 329.36 18.83 322.21 16.20 312.75 C 13.57 303.29 12.75 295.13 11.60 285.25 C 10.46 275.36 11.35 274.28 11.00 263.00 C 10.65 251.72 12.92 240.73 15.26 231.25 C 17.60 221.77 15.45 226.19 18.21 217.77 C 20.97 209.35 24.63 202.72 28.71 193.70 C 32.80 184.67 36.63 177.34 42.24 169.23 C 47.84 161.12 55.44 149.73 62.30 141.30 C 69.15 132.86 79.54 122.69 88.08 116.08 C 96.63 109.47 104.88 101.89 113.25 96.81 C 121.63 91.74 128.95 84.37 136.77 80.43 C 144.59 76.49 140.50 76.40 148.30 73.29 C 156.10 70.17 164.61 65.00 171.77 61.42 C 178.93 57.85 176.14 59.30 183.92 55.87 C 191.70 52.44 201.60 49.31 208.75 46.60 C 215.90 43.89 226.09 39.33 233.75 37.61 C 241.42 35.89 240.35 34.68 246.13 33.08 C 251.91 31.48 252.98 32.31 259.25 30.20 C 265.52 28.09 263.02 29.64 271.75 27.40 C 280.48 25.15 292.18 23.43 300.25 21.20 C 308.32 18.97 309.41 21.16 316.03 19.98 C 322.64 18.79 325.65 16.64 332.10 16.10 C 338.54 15.55 342.89 16.91 349.25 15.20 C 355.60 13.49 358.94 15.94 366.22 14.22 C 373.51 12.50 380.91 14.56 389.07 13.07 C 397.24 11.58 406.07 14.43 414.67 13.67 C 423.27 12.91 427.36 14.66 437.67 14.67 C 447.98 14.67 460.80 16.53 470.25 17.19 C 479.70 17.85 477.65 18.72 487.25 19.80 C 496.84 20.89 505.74 22.49 515.25 24.80 C 524.76 27.11 534.48 28.04 542.25 30.20 C 550.02 32.36 561.16 36.19 568.30 38.71 C 575.45 41.23 573.52 38.99 581.25 42.19 C 588.99 45.39 597.62 48.85 605.75 51.39 C 613.89 53.94 609.59 53.91 616.71 56.64 C 623.84 59.38 634.40 64.77 641.30 68.71 C 648.21 72.65 646.70 71.96 653.75 75.59 C 660.80 79.22 669.43 84.47 676.75 89.59 C 684.07 94.70 680.91 92.94 688.77 98.24 C 696.63 103.53 706.73 111.79 714.30 118.70 C 721.88 125.61 721.68 126.84 728.25 132.75 C 734.82 138.66 736.16 139.87 740.71 145.30 C 745.26 150.74 746.73 152.53 750.19 158.25 C 753.65 163.98 756.18 163.07 759.75 170.25 C 763.31 177.44 768.28 186.21 771.19 193.25 C 774.10 200.30 779.09 208.58 781.71 217.30 C 784.33 226.01 785.31 235.30 787.19 244.25 C 789.07 253.21 787.78 251.43 789.00 260.00 Z"/>
</g>
<g fill="None" fill-opacity="0.0" stroke="#000000" stroke-opacity="0.00" stroke-width="0.3"><path d="
M 789.00 277.00 
C 788.73 271.88 788.69 265.06 789.00 260.00
C 787.78 251.43 789.07 253.21 787.19 244.25 C 785.31 235.30 784.33 226.01 781.71 217.30 C 779.09 208.58 774.10 200.30 771.19 193.25 C 768.28 186.21 763.31 177.44 759.75 170.25 C 756.18 163.07 753.65 163.98 750.19 158.25 C 746.73 152.53 745.26 150.74 740.71 145.30 C 736.16 139.87 734.82 138.66 728.25 132.75 C 721.68 126.84 721.88 125.61 714.30 118.70 C 706.73 111.79 696.63 103.53 688.77 98.24 C 680.91 92.94 684.07 94.70 676.75 89.59 C 669.43 84.47 660.80 79.22 653.75 75.59 C 646.70 71.96 648.21 72.65 641.30 68.71 C 634.40 64.77 623.84 59.38 616.71 56.64 C 609.59 53.91 613.89 53.94 605.75 51.39 C 597.62 48.85 588.99 45.39 581.25 42.19 C 573.52 38.99 575.45 41.23 568.30 38.71 C 561.16 36.19 550.02 32.36 542.25 30.20 C 534.48 28.04 524.76 27.11 515.25 24.80 C 505.74 22.49 496.84 20.89 487.25 19.80 C 477.65 18.72 479.70 17.85 470.25 17.19 C 460.80 16.53 447.98 14.67 437.67 14.67 C 427.36 14.66 423.27 12.91 414.67 13.67 C 406.07 14.43 397.24 11.58 389.07 13.07 C 380.91 14.56 373.51 12.50 366.22 14.22 C 358.94 15.94 355.60 13.49 349.25 15.20 C 342.89 16.91 338.54 15.55 332.10 16.10 C 325.65 16.64 322.64 18.79 316.03 19.98 C 309.41 21.16 308.32 18.97 300.25 21.20 C 292.18 23.43 280.48 25.15 271.75 27.40 C 263.02 29.64 265.52 28.09 259.25 30.20 C 252.98 32.31 251.91 31.48 246.13 33.08 C 240.35 34.68 241.42 35.89 233.75 37.61 C 226.09 39.33 215.90 43.89 208.75 46.60 C 201.60 49.31 191.70 52.44 183.92 55.87 C 176.14 59.30 178.93 57.85 171.77 61.42 C 164.61 65.00 156.10 70.17 148.30 73.29 C 140.50 76.40 144.59 76.49 136.77 80.43 C 128.95 84.37 121.63 91.74 113.25 96.81 C 104.88 101.89 96.63 109.47 88.08 116.08 C 79.54 122.69 69.15 132.86 62.30 141.30 C 55.44 149.73 47.84 161.12 42.24 169.23 C 36.63 177.34 32.80 184.67 28.71 193.70 C 24.63 202.72 20.97 209.35 18.21 217.77 C 15.45 226.19 17.60 221.77 15.26 231.25 C 12.92 240.73 10.65 251.72 11.00 263.00 C 11.35 274.28 10.46 275.36 11.60 285.25 C 12.75 295.13 13.57 303.29 16.20 312.75 C 18.83 322.21 20.96 329.36 24.42 337.23 C 27.89 345.10 30.48 350.42 35.87 360.08 C 41.26 369.74 53.10 385.87 62.75 396.25 C 72.40 406.63 78.89 415.75 88.75 423.81 C 98.60 431.87 104.98 436.88 114.08 442.91 C 123.19 448.94 128.80 454.14 137.25 458.74 C 145.69 463.33 152.61 467.41 160.25 471.61 C 167.88 475.80 175.31 478.22 182.23 481.42 C 189.15 484.63 198.12 488.54 205.25 491.60 C 212.39 494.66 222.98 496.46 230.81 499.74 C 238.65 503.02 247.07 504.44 256.75 507.24 C 266.44 510.05 276.68 512.33 284.25 513.74 C 291.81 515.14 302.69 517.73 312.25 518.74 C 321.81 519.74 331.63 522.02 341.98 523.02 C 352.32 524.03 353.41 523.23 360.32 524.66 C 367.24 526.09 380.11 521.32 374.00 526.00
C 380.10 525.68 386.47 525.70 392.00 526.00 C 397.53 526.30 406.96 526.70 411.99 525.99 C 417.02 525.29 426.38 526.57 424.00 524.00
C 461.89 523.56 499.27 518.75 528.75 511.76 C 558.24 504.76 585.81 495.26 611.70 484.71 C 637.59 474.16 659.13 461.04 686.70 442.71 C 714.27 424.39 745.36 390.79 762.20 364.25 C 779.04 337.70 783.11 313.84 789.00 277.00
M 574.00 270.00 
C 550.56 272.27 523.66 273.29 500.00 271.00
C 425.13 271.00 352.47 273.59 277.00 272.00
C 279.76 274.16 284.49 272.45 288.00 273.00
C 264.71 275.36 238.32 273.29 215.00 274.00
C 215.06 293.58 188.50 308.95 169.25 296.61 C 150.00 284.26 150.04 255.63 170.25 244.81 C 190.47 233.99 218.42 248.69 216.00 271.00
C 227.76 271.74 239.98 266.46 252.00 269.00 C 264.02 271.54 275.79 267.55 288.00 269.00 C 300.21 270.45 311.84 269.35 324.00 269.00 C 336.16 268.65 348.11 269.86 360.01 269.01 C 371.91 268.16 384.86 271.16 396.67 268.67 C 408.48 266.18 419.09 269.70 431.00 269.00 C 442.91 268.30 454.19 268.05 466.07 268.07 C 477.95 268.09 490.63 269.08 503.00 269.00 C 515.37 268.92 526.84 268.13 539.00 267.00 C 551.16 265.87 565.10 267.38 577.01 267.99 C 588.92 268.60 583.87 257.96 589.39 252.25 C 594.91 246.54 600.67 243.43 607.08 241.94 C 613.49 240.44 623.15 240.22 628.25 243.19 C 633.36 246.16 641.23 252.63 642.58 257.77 C 643.92 262.91 649.12 271.47 644.79 279.23 C 640.46 286.99 640.88 289.08 631.70 295.71 C 622.51 302.34 602.41 301.95 594.70 293.29 C 586.98 284.63 584.94 284.80 585.00 274.00
C 582.67 278.18 582.36 271.72 584.00 270.00
C 580.67 270.00 577.33 270.00 574.00 270.00 Z"/>
</g>
<g fill="None" fill-opacity="0.0" stroke="#000000" stroke-opacity="0.95" stroke-width="0.3"><path d="
M 500.00 271.00 
C 524.33 271.00 549.30 270.00 574.00 270.00
C 577.33 270.00 580.67 270.00 584.00 270.00
C 582.36 271.72 582.67 278.18 585.00 274.00
C 584.94 284.80 586.98 284.63 594.70 293.29 C 602.41 301.95 622.51 302.34 631.70 295.71 C 640.88 289.08 640.46 286.99 644.79 279.23 C 649.12 271.47 643.92 262.91 642.58 257.77 C 641.23 252.63 633.36 246.16 628.25 243.19 C 623.15 240.22 613.49 240.44 607.08 241.94 C 600.67 243.43 594.91 246.54 589.39 252.25 C 583.87 257.96 588.92 268.60 577.01 267.99 C 565.10 267.38 551.16 265.87 539.00 267.00 C 526.84 268.13 515.37 268.92 503.00 269.00 C 490.63 269.08 477.95 268.09 466.07 268.07 C 454.19 268.05 442.91 268.30 431.00 269.00 C 419.09 269.70 408.48 266.18 396.67 268.67 C 384.86 271.16 371.91 268.16 360.01 269.01 C 348.11 269.86 336.16 268.65 324.00 269.00 C 311.84 269.35 300.21 270.45 288.00 269.00 C 275.79 267.55 264.02 271.54 252.00 269.00 C 239.98 266.46 227.76 271.74 216.00 271.00
C 218.42 248.69 190.47 233.99 170.25 244.81 C 150.04 255.63 150.00 284.26 169.25 296.61 C 188.50 308.95 215.06 293.58 215.00 274.00
C 238.32 273.29 264.71 275.36 288.00 273.00
C 284.49 272.45 279.76 274.16 277.00 272.00
C 352.47 273.59 425.13 271.00 500.00 271.00 Z"/>
</g>
<g fill="None" fill-opacity="0.0" stroke="#000000" stroke-opacity="0.47" stroke-width="0.3"><path d="
M 789.00 277.00 
C 789.87 271.57 789.92 265.84 789.00 260.00
C 788.69 265.06 788.73 271.88 789.00 277.00 Z"/>
</g>
<g fill="None" fill-opacity="0.0" stroke="#000000" stroke-opacity="0.52" stroke-width="0.3"><path d="
M 500.00 271.00 
C 523.66 273.29 550.56 272.27 574.00 270.00
C 549.30 270.00 524.33 271.00 500.00 271.00 Z"/>
</g>
<g fill="#000000" fill-opacity="0.00" stroke="None">
<path d="
M 0.00 541.00 
L 800.00 541.00
L 800.00 0.00
L 0.00 0.00
L 0.00 541.00
M 793.00 280.00 
C 790.80 280.09 791.06 285.92 790.40 292.75 C 789.73 299.59 789.14 299.22 787.74 307.75 C 786.33 316.29 782.65 326.59 780.65 333.70 C 778.65 340.81 777.62 339.41 775.65 345.70 C 773.68 351.98 771.41 353.39 769.20 358.25 C 766.99 363.11 764.48 365.43 762.20 370.25 C 759.92 375.07 755.33 377.74 753.22 383.22 C 751.12 388.71 744.11 390.71 741.25 396.25 C 738.40 401.80 734.27 405.47 729.25 411.25 C 724.22 417.02 720.01 418.37 715.30 423.30 C 710.60 428.23 707.39 429.55 703.75 433.19 C 700.11 436.84 694.63 439.21 690.75 443.19 C 686.87 447.17 682.51 448.34 678.25 451.39 C 673.98 454.45 671.30 456.12 666.25 459.39 C 661.20 462.66 660.79 462.07 654.25 466.39 C 647.70 470.72 638.43 475.79 631.25 478.39 C 624.07 481.00 625.93 482.51 620.08 484.13 C 614.23 485.76 614.03 487.70 607.25 489.59 C 600.47 491.48 603.15 492.66 595.23 494.58 C 587.31 496.49 578.64 501.06 570.61 503.76 C 562.57 506.45 550.01 508.27 543.08 511.13 C 536.15 514.00 537.42 512.38 528.30 514.64 C 519.18 516.91 508.38 518.49 498.78 520.22 C 489.17 521.94 479.16 523.58 469.25 524.60 C 459.34 525.63 445.44 527.35 434.31 527.35 C 423.17 527.36 423.12 528.34 412.98 528.98 C 402.83 529.61 393.74 528.23 385.32 528.34 C 376.90 528.45 369.69 528.29 362.78 527.22 C 355.86 526.14 351.80 526.72 345.75 526.20 C 339.70 525.68 334.72 525.06 329.25 524.40 C 323.77 523.73 319.67 522.75 314.25 522.40 C 308.83 522.04 304.41 519.98 298.00 521.00
C 297.75 518.62 291.93 518.89 285.75 517.20 C 279.57 515.51 278.35 516.28 269.75 514.20 C 261.15 512.12 249.05 509.06 240.75 506.20 C 232.45 503.34 232.97 504.12 226.70 501.29 C 220.43 498.45 219.54 501.25 212.77 497.79 C 206.00 494.33 208.02 496.63 199.75 492.81 C 191.47 488.99 180.61 484.14 173.25 481.61 C 165.88 479.07 167.08 477.10 161.08 474.87 C 155.08 472.64 154.44 471.59 148.75 468.81 C 143.06 466.04 142.69 464.50 136.23 461.42 C 129.77 458.35 131.31 457.48 123.08 452.91 C 114.86 448.35 103.98 440.23 96.23 433.43 C 88.48 426.62 88.66 428.14 81.75 421.81 C 74.84 415.47 73.38 415.52 66.25 406.75 C 59.11 397.98 50.09 386.89 44.81 378.75 C 39.53 370.60 40.60 372.95 35.74 365.25 C 30.87 357.54 25.90 348.78 22.36 340.30 C 18.83 331.81 15.40 321.96 12.41 310.25 C 9.41 298.55 9.34 292.34 7.35 278.31 C 5.37 264.27 9.70 248.78 10.80 238.75 C 11.90 228.72 14.76 219.83 18.13 210.08 C 21.50 200.34 25.18 192.33 29.19 183.75 C 33.21 175.18 32.73 179.58 37.24 171.23 C 41.74 162.88 50.32 151.14 56.92 143.87 C 63.52 136.60 63.60 134.68 70.25 128.25 C 76.89 121.82 79.96 119.43 84.19 114.75 C 88.42 110.08 93.34 108.68 98.25 104.20 C 103.16 99.72 105.57 97.66 111.75 93.74 C 117.94 89.82 116.98 88.94 124.77 84.42 C 132.56 79.90 142.75 72.61 150.25 69.81 C 157.76 67.01 156.48 64.49 162.77 62.42 C 169.06 60.36 169.05 59.06 175.77 55.77 C 182.48 52.47 181.89 54.93 189.75 50.61 C 197.62 46.29 206.66 43.90 215.24 40.79 C 223.81 37.68 236.11 32.71 244.75 31.60 C 253.39 30.50 251.76 27.44 258.75 27.40 C 265.74 27.35 266.30 23.53 272.13 23.08 C 277.96 22.63 281.80 21.50 287.30 20.29 C 292.79 19.08 297.02 18.90 301.90 17.88 C 306.78 16.87 312.39 16.49 317.75 15.40 C 323.12 14.30 330.17 14.67 335.75 13.60 C 341.34 12.53 348.14 12.87 354.25 11.81 C 360.36 10.74 366.72 10.56 374.02 10.98 C 381.33 11.39 391.73 10.06 400.00 10.00 C 408.27 9.94 417.88 11.85 425.23 10.79 C 432.58 9.72 439.00 11.79 445.25 11.80 C 451.49 11.81 457.74 12.96 463.75 13.60 C 469.76 14.25 475.92 14.65 481.25 15.80 C 486.58 16.95 491.20 15.84 496.25 17.20 C 501.30 18.56 508.46 19.73 513.70 20.35 C 518.94 20.97 522.70 23.49 528.30 24.71 C 533.91 25.94 538.47 25.68 543.70 27.35 C 548.93 29.02 552.34 30.35 559.08 32.92 C 565.82 35.49 566.62 32.87 574.70 36.35 C 582.77 39.83 592.48 43.26 600.77 46.57 C 609.05 49.88 605.95 50.04 614.30 52.71 C 622.66 55.38 633.12 60.55 640.77 64.58 C 648.42 68.61 646.27 68.54 653.30 71.71 C 660.33 74.88 658.02 75.80 666.25 79.75 C 674.49 83.70 684.16 90.24 692.30 96.71 C 700.44 103.19 712.30 111.40 719.25 117.80 C 726.20 124.20 727.61 125.17 734.25 132.75 C 740.88 140.34 750.08 150.60 755.71 159.30 C 761.35 168.00 767.19 176.54 771.13 184.92 C 775.07 193.30 779.61 202.33 782.58 210.77 C 785.54 219.21 788.37 230.76 789.20 240.25 C 790.03 249.73 791.82 247.74 791.60 255.75 C 791.39 263.77 792.25 269.74 793.00 280.00 Z"/>
</g>
<g fill="#000000" fill-opacity="0.80" stroke="None">
<path d="
M 793.00 280.00 
C 792.25 269.74 791.39 263.77 791.60 255.75 C 791.82 247.74 790.03 249.73 789.20 240.25 C 788.37 230.76 785.54 219.21 782.58 210.77 C 779.61 202.33 775.07 193.30 771.13 184.92 C 767.19 176.54 761.35 168.00 755.71 159.30 C 750.08 150.60 740.88 140.34 734.25 132.75 C 727.61 125.17 726.20 124.20 719.25 117.80 C 712.30 111.40 700.44 103.19 692.30 96.71 C 684.16 90.24 674.49 83.70 666.25 79.75 C 658.02 75.80 660.33 74.88 653.30 71.71 C 646.27 68.54 648.42 68.61 640.77 64.58 C 633.12 60.55 622.66 55.38 614.30 52.71 C 605.95 50.04 609.05 49.88 600.77 46.57 C 592.48 43.26 582.77 39.83 574.70 36.35 C 566.62 32.87 565.82 35.49 559.08 32.92 C 552.34 30.35 548.93 29.02 543.70 27.35 C 538.47 25.68 533.91 25.94 528.30 24.71 C 522.70 23.49 518.94 20.97 513.70 20.35 C 508.46 19.73 501.30 18.56 496.25 17.20 C 491.20 15.84 486.58 16.95 481.25 15.80 C 475.92 14.65 469.76 14.25 463.75 13.60 C 457.74 12.96 451.49 11.81 445.25 11.80 C 439.00 11.79 432.58 9.72 425.23 10.79 C 417.88 11.85 408.27 9.94 400.00 10.00 C 391.73 10.06 381.33 11.39 374.02 10.98 C 366.72 10.56 360.36 10.74 354.25 11.81 C 348.14 12.87 341.34 12.53 335.75 13.60 C 330.17 14.67 323.12 14.30 317.75 15.40 C 312.39 16.49 306.78 16.87 301.90 17.88 C 297.02 18.90 292.79 19.08 287.30 20.29 C 281.80 21.50 277.96 22.63 272.13 23.08 C 266.30 23.53 265.74 27.35 258.75 27.40 C 251.76 27.44 253.39 30.50 244.75 31.60 C 236.11 32.71 223.81 37.68 215.24 40.79 C 206.66 43.90 197.62 46.29 189.75 50.61 C 181.89 54.93 182.48 52.47 175.77 55.77 C 169.05 59.06 169.06 60.36 162.77 62.42 C 156.48 64.49 157.76 67.01 150.25 69.81 C 142.75 72.61 132.56 79.90 124.77 84.42 C 116.98 88.94 117.94 89.82 111.75 93.74 C 105.57 97.66 103.16 99.72 98.25 104.20 C 93.34 108.68 88.42 110.08 84.19 114.75 C 79.96 119.43 76.89 121.82 70.25 128.25 C 63.60 134.68 63.52 136.60 56.92 143.87 C 50.32 151.14 41.74 162.88 37.24 171.23 C 32.73 179.58 33.21 175.18 29.19 183.75 C 25.18 192.33 21.50 200.34 18.13 210.08 C 14.76 219.83 11.90 228.72 10.80 238.75 C 9.70 248.78 5.37 264.27 7.35 278.31 C 9.34 292.34 9.41 298.55 12.41 310.25 C 15.40 321.96 18.83 331.81 22.36 340.30 C 25.90 348.78 30.87 357.54 35.74 365.25 C 40.60 372.95 39.53 370.60 44.81 378.75 C 50.09 386.89 59.11 397.98 66.25 406.75 C 73.38 415.52 74.84 415.47 81.75 421.81 C 88.66 428.14 88.48 426.62 96.23 433.43 C 103.98 440.23 114.86 448.35 123.08 452.91 C 131.31 457.48 129.77 458.35 136.23 461.42 C 142.69 464.50 143.06 466.04 148.75 468.81 C 154.44 471.59 155.08 472.64 161.08 474.87 C 167.08 477.10 165.88 479.07 173.25 481.61 C 180.61 484.14 191.47 488.99 199.75 492.81 C 208.02 496.63 206.00 494.33 212.77 497.79 C 219.54 501.25 220.43 498.45 226.70 501.29 C 232.97 504.12 232.45 503.34 240.75 506.20 C 249.05 509.06 261.15 512.12 269.75 514.20 C 278.35 516.28 279.57 515.51 285.75 517.20 C 291.93 518.89 297.75 518.62 298.00 521.00
C 304.41 519.98 308.83 522.04 314.25 522.40 C 319.67 522.75 323.77 523.73 329.25 524.40 C 334.72 525.06 339.70 525.68 345.75 526.20 C 351.80 526.72 355.86 526.14 362.78 527.22 C 369.69 528.29 376.90 528.45 385.32 528.34 C 393.74 528.23 402.83 529.61 412.98 528.98 C 423.12 528.34 423.17 527.36 434.31 527.35 C 445.44 527.35 459.34 525.63 469.25 524.60 C 479.16 523.58 489.17 521.94 498.78 520.22 C 508.38 518.49 519.18 516.91 528.30 514.64 C 537.42 512.38 536.15 514.00 543.08 511.13 C 550.01 508.27 562.57 506.45 570.61 503.76 C 578.64 501.06 587.31 496.49 595.23 494.58 C 603.15 492.66 600.47 491.48 607.25 489.59 C 614.03 487.70 614.23 485.76 620.08 484.13 C 625.93 482.51 624.07 481.00 631.25 478.39 C 638.43 475.79 647.70 470.72 654.25 466.39 C 660.79 462.07 661.20 462.66 666.25 459.39 C 671.30 456.12 673.98 454.45 678.25 451.39 C 682.51 448.34 686.87 447.17 690.75 443.19 C 694.63 439.21 700.11 436.84 703.75 433.19 C 707.39 429.55 710.60 428.23 715.30 423.30 C 720.01 418.37 724.22 417.02 729.25 411.25 C 734.27 405.47 738.40 401.80 741.25 396.25 C 744.11 390.71 751.12 388.71 753.22 383.22 C 755.33 377.74 759.92 375.07 762.20 370.25 C 764.48 365.43 766.99 363.11 769.20 358.25 C 771.41 353.39 773.68 351.98 775.65 345.70 C 777.62 339.41 778.65 340.81 780.65 333.70 C 782.65 326.59 786.33 316.29 787.74 307.75 C 789.14 299.22 789.73 299.59 790.40 292.75 C 791.06 285.92 790.80 280.09 793.00 280.00
M 789.00 260.00 
C 789.92 265.84 789.87 271.57 789.00 277.00
C 783.11 313.84 779.04 337.70 762.20 364.25 C 745.36 390.79 714.27 424.39 686.70 442.71 C 659.13 461.04 637.59 474.16 611.70 484.71 C 585.81 495.26 558.24 504.76 528.75 511.76 C 499.27 518.75 461.89 523.56 424.00 524.00
C 426.38 526.57 417.02 525.29 411.99 525.99 C 406.96 526.70 397.53 526.30 392.00 526.00 C 386.47 525.70 380.10 525.68 374.00 526.00
C 380.11 521.32 367.24 526.09 360.32 524.66 C 353.41 523.23 352.32 524.03 341.98 523.02 C 331.63 522.02 321.81 519.74 312.25 518.74 C 302.69 517.73 291.81 515.14 284.25 513.74 C 276.68 512.33 266.44 510.05 256.75 507.24 C 247.07 504.44 238.65 503.02 230.81 499.74 C 222.98 496.46 212.39 494.66 205.25 491.60 C 198.12 488.54 189.15 484.63 182.23 481.42 C 175.31 478.22 167.88 475.80 160.25 471.61 C 152.61 467.41 145.69 463.33 137.25 458.74 C 128.80 454.14 123.19 448.94 114.08 442.91 C 104.98 436.88 98.60 431.87 88.75 423.81 C 78.89 415.75 72.40 406.63 62.75 396.25 C 53.10 385.87 41.26 369.74 35.87 360.08 C 30.48 350.42 27.89 345.10 24.42 337.23 C 20.96 329.36 18.83 322.21 16.20 312.75 C 13.57 303.29 12.75 295.13 11.60 285.25 C 10.46 275.36 11.35 274.28 11.00 263.00 C 10.65 251.72 12.92 240.73 15.26 231.25 C 17.60 221.77 15.45 226.19 18.21 217.77 C 20.97 209.35 24.63 202.72 28.71 193.70 C 32.80 184.67 36.63 177.34 42.24 169.23 C 47.84 161.12 55.44 149.73 62.30 141.30 C 69.15 132.86 79.54 122.69 88.08 116.08 C 96.63 109.47 104.88 101.89 113.25 96.81 C 121.63 91.74 128.95 84.37 136.77 80.43 C 144.59 76.49 140.50 76.40 148.30 73.29 C 156.10 70.17 164.61 65.00 171.77 61.42 C 178.93 57.85 176.14 59.30 183.92 55.87 C 191.70 52.44 201.60 49.31 208.75 46.60 C 215.90 43.89 226.09 39.33 233.75 37.61 C 241.42 35.89 240.35 34.68 246.13 33.08 C 251.91 31.48 252.98 32.31 259.25 30.20 C 265.52 28.09 263.02 29.64 271.75 27.40 C 280.48 25.15 292.18 23.43 300.25 21.20 C 308.32 18.97 309.41 21.16 316.03 19.98 C 322.64 18.79 325.65 16.64 332.10 16.10 C 338.54 15.55 342.89 16.91 349.25 15.20 C 355.60 13.49 358.94 15.94 366.22 14.22 C 373.51 12.50 380.91 14.56 389.07 13.07 C 397.24 11.58 406.07 14.43 414.67 13.67 C 423.27 12.91 427.36 14.66 437.67 14.67 C 447.98 14.67 460.80 16.53 470.25 17.19 C 479.70 17.85 477.65 18.72 487.25 19.80 C 496.84 20.89 505.74 22.49 515.25 24.80 C 524.76 27.11 534.48 28.04 542.25 30.20 C 550.02 32.36 561.16 36.19 568.30 38.71 C 575.45 41.23 573.52 38.99 581.25 42.19 C 588.99 45.39 597.62 48.85 605.75 51.39 C 613.89 53.94 609.59 53.91 616.71 56.64 C 623.84 59.38 634.40 64.77 641.30 68.71 C 648.21 72.65 646.70 71.96 653.75 75.59 C 660.80 79.22 669.43 84.47 676.75 89.59 C 684.07 94.70 680.91 92.94 688.77 98.24 C 696.63 103.53 706.73 111.79 714.30 118.70 C 721.88 125.61 721.68 126.84 728.25 132.75 C 734.82 138.66 736.16 139.87 740.71 145.30 C 745.26 150.74 746.73 152.53 750.19 158.25 C 753.65 163.98 756.18 163.07 759.75 170.25 C 763.31 177.44 768.28 186.21 771.19 193.25 C 774.10 200.30 779.09 208.58 781.71 217.30 C 784.33 226.01 785.31 235.30 787.19 244.25 C 789.07 253.21 787.78 251.43 789.00 260.00 Z"/>
</g>
<g fill="#000000" fill-opacity="0.00" stroke="None">
<path d="
M 789.00 277.00 
C 788.73 271.88 788.69 265.06 789.00 260.00
C 787.78 251.43 789.07 253.21 787.19 244.25 C 785.31 235.30 784.33 226.01 781.71 217.30 C 779.09 208.58 774.10 200.30 771.19 193.25 C 768.28 186.21 763.31 177.44 759.75 170.25 C 756.18 163.07 753.65 163.98 750.19 158.25 C 746.73 152.53 745.26 150.74 740.71 145.30 C 736.16 139.87 734.82 138.66 728.25 132.75 C 721.68 126.84 721.88 125.61 714.30 118.70 C 706.73 111.79 696.63 103.53 688.77 98.24 C 680.91 92.94 684.07 94.70 676.75 89.59 C 669.43 84.47 660.80 79.22 653.75 75.59 C 646.70 71.96 648.21 72.65 641.30 68.71 C 634.40 64.77 623.84 59.38 616.71 56.64 C 609.59 53.91 613.89 53.94 605.75 51.39 C 597.62 48.85 588.99 45.39 581.25 42.19 C 573.52 38.99 575.45 41.23 568.30 38.71 C 561.16 36.19 550.02 32.36 542.25 30.20 C 534.48 28.04 524.76 27.11 515.25 24.80 C 505.74 22.49 496.84 20.89 487.25 19.80 C 477.65 18.72 479.70 17.85 470.25 17.19 C 460.80 16.53 447.98 14.67 437.67 14.67 C 427.36 14.66 423.27 12.91 414.67 13.67 C 406.07 14.43 397.24 11.58 389.07 13.07 C 380.91 14.56 373.51 12.50 366.22 14.22 C 358.94 15.94 355.60 13.49 349.25 15.20 C 342.89 16.91 338.54 15.55 332.10 16.10 C 325.65 16.64 322.64 18.79 316.03 19.98 C 309.41 21.16 308.32 18.97 300.25 21.20 C 292.18 23.43 280.48 25.15 271.75 27.40 C 263.02 29.64 265.52 28.09 259.25 30.20 C 252.98 32.31 251.91 31.48 246.13 33.08 C 240.35 34.68 241.42 35.89 233.75 37.61 C 226.09 39.33 215.90 43.89 208.75 46.60 C 201.60 49.31 191.70 52.44 183.92 55.87 C 176.14 59.30 178.93 57.85 171.77 61.42 C 164.61 65.00 156.10 70.17 148.30 73.29 C 140.50 76.40 144.59 76.49 136.77 80.43 C 128.95 84.37 121.63 91.74 113.25 96.81 C 104.88 101.89 96.63 109.47 88.08 116.08 C 79.54 122.69 69.15 132.86 62.30 141.30 C 55.44 149.73 47.84 161.12 42.24 169.23 C 36.63 177.34 32.80 184.67 28.71 193.70 C 24.63 202.72 20.97 209.35 18.21 217.77 C 15.45 226.19 17.60 221.77 15.26 231.25 C 12.92 240.73 10.65 251.72 11.00 263.00 C 11.35 274.28 10.46 275.36 11.60 285.25 C 12.75 295.13 13.57 303.29 16.20 312.75 C 18.83 322.21 20.96 329.36 24.42 337.23 C 27.89 345.10 30.48 350.42 35.87 360.08 C 41.26 369.74 53.10 385.87 62.75 396.25 C 72.40 406.63 78.89 415.75 88.75 423.81 C 98.60 431.87 104.98 436.88 114.08 442.91 C 123.19 448.94 128.80 454.14 137.25 458.74 C 145.69 463.33 152.61 467.41 160.25 471.61 C 167.88 475.80 175.31 478.22 182.23 481.42 C 189.15 484.63 198.12 488.54 205.25 491.60 C 212.39 494.66 222.98 496.46 230.81 499.74 C 238.65 503.02 247.07 504.44 256.75 507.24 C 266.44 510.05 276.68 512.33 284.25 513.74 C 291.81 515.14 302.69 517.73 312.25 518.74 C 321.81 519.74 331.63 522.02 341.98 523.02 C 352.32 524.03 353.41 523.23 360.32 524.66 C 367.24 526.09 380.11 521.32 374.00 526.00
C 380.10 525.68 386.47 525.70 392.00 526.00 C 397.53 526.30 406.96 526.70 411.99 525.99 C 417.02 525.29 426.38 526.57 424.00 524.00
C 461.89 523.56 499.27 518.75 528.75 511.76 C 558.24 504.76 585.81 495.26 611.70 484.71 C 637.59 474.16 659.13 461.04 686.70 442.71 C 714.27 424.39 745.36 390.79 762.20 364.25 C 779.04 337.70 783.11 313.84 789.00 277.00
M 574.00 270.00 
C 550.56 272.27 523.66 273.29 500.00 271.00
C 425.13 271.00 352.47 273.59 277.00 272.00
C 279.76 274.16 284.49 272.45 288.00 273.00
C 264.71 275.36 238.32 273.29 215.00 274.00
C 215.06 293.58 188.50 308.95 169.25 296.61 C 150.00 284.26 150.04 255.63 170.25 244.81 C 190.47 233.99 218.42 248.69 216.00 271.00
C 227.76 271.74 239.98 266.46 252.00 269.00 C 264.02 271.54 275.79 267.55 288.00 269.00 C 300.21 270.45 311.84 269.35 324.00 269.00 C 336.16 268.65 348.11 269.86 360.01 269.01 C 371.91 268.16 384.86 271.16 396.67 268.67 C 408.48 266.18 419.09 269.70 431.00 269.00 C 442.91 268.30 454.19 268.05 466.07 268.07 C 477.95 268.09 490.63 269.08 503.00 269.00 C 515.37 268.92 526.84 268.13 539.00 267.00 C 551.16 265.87 565.10 267.38 577.01 267.99 C 588.92 268.60 583.87 257.96 589.39 252.25 C 594.91 246.54 600.67 243.43 607.08 241.94 C 613.49 240.44 623.15 240.22 628.25 243.19 C 633.36 246.16 641.23 252.63 642.58 257.77 C 643.92 262.91 649.12 271.47 644.79 279.23 C 640.46 286.99 640.88 289.08 631.70 295.71 C 622.51 302.34 602.41 301.95 594.70 293.29 C 586.98 284.63 584.94 284.80 585.00 274.00
C 582.67 278.18 582.36 271.72 584.00 270.00
C 580.67 270.00 577.33 270.00 574.00 270.00 Z"/>
</g>
<g fill="#000000" fill-opacity="0.95" stroke="None">
<path d="
M 500.00 271.00 
C 524.33 271.00 549.30 270.00 574.00 270.00
C 577.33 270.00 580.67 270.00 584.00 270.00
C 582.36 271.72 582.67 278.18 585.00 274.00
C 584.94 284.80 586.98 284.63 594.70 293.29 C 602.41 301.95 622.51 302.34 631.70 295.71 C 640.88 289.08 640.46 286.99 644.79 279.23 C 649.12 271.47 643.92 262.91 642.58 257.77 C 641.23 252.63 633.36 246.16 628.25 243.19 C 623.15 240.22 613.49 240.44 607.08 241.94 C 600.67 243.43 594.91 246.54 589.39 252.25 C 583.87 257.96 588.92 268.60 577.01 267.99 C 565.10 267.38 551.16 265.87 539.00 267.00 C 526.84 268.13 515.37 268.92 503.00 269.00 C 490.63 269.08 477.95 268.09 466.07 268.07 C 454.19 268.05 442.91 268.30 431.00 269.00 C 419.09 269.70 408.48 266.18 396.67 268.67 C 384.86 271.16 371.91 268.16 360.01 269.01 C 348.11 269.86 336.16 268.65 324.00 269.00 C 311.84 269.35 300.21 270.45 288.00 269.00 C 275.79 267.55 264.02 271.54 252.00 269.00 C 239.98 266.46 227.76 271.74 216.00 271.00
C 218.42 248.69 190.47 233.99 170.25 244.81 C 150.04 255.63 150.00 284.26 169.25 296.61 C 188.50 308.95 215.06 293.58 215.00 274.00
C 238.32 273.29 264.71 275.36 288.00 273.00
C 284.49 272.45 279.76 274.16 277.00 272.00
C 352.47 273.59 425.13 271.00 500.00 271.00 Z"/>
</g>
<g fill="#000000" fill-opacity="0.47" stroke="None">
<path d="
M 789.00 277.00 
C 789.87 271.57 789.92 265.84 789.00 260.00
C 788.69 265.06 788.73 271.88 789.00 277.00 Z"/>
</g>
<g fill="#000000" fill-opacity="0.52" stroke="None">
<path d="
M 500.00 271.00 
C 523.66 273.29 550.56 272.27 574.00 270.00
C 549.30 270.00 524.33 271.00 500.00 271.00 Z"/>
</g>
</svg>